<svg version="1.1" id="Layer_1" xmlns="http://www.w3.org/2000/svg" x="0" y="0" viewBox="0 0 192.6 255.5" xml:space="preserve"><style>.st5{fill:none;stroke-miterlimit:10;stroke:#fff}</style><path d="M80.9 135v-29.9h23.5V135" id="Layer_5" fill="#368f43"/><g id="dino2_copy"><path d="M73.7 142.4c0 6.5-5.3 11.7-11.7 11.7s-11.7-5.3-11.7-11.7" fill="none"/><path d="M46.1 127.9h-.4c2.5 0 4.5 2 4.5 4.5v7.4h23.5v-4.7c0-10.5 8.5-19 19-19 9 0 16.5 6.3 18.5 14.6.3 1.4.5 2.8.5 4.3v4.7h23.5v-15.9c0-2 1.6-3.7 3.7-3.7s3.7 1.6 3.7 3.7v15.9h23.5v-24.6C151.8 102 132.7 94 111.8 94c-27.2.1-51.1 13.4-65.7 33.9z" fill="#5ba845"/></g><path d="M46.1 127.9c14.6-20.4 38.5-33.7 65.5-33.7 20.9 0 40 8 54.3 21.1V54.7c0-29.9-23.6-49-53.5-49.1C102 5.7 100 9.5 100 19.9c0 10.5 1.2 16 11.7 16s19.1-6.1 19-16.6c.5 1.7.8 3.5.8 5.3 0 2-.3 3.9-.9 5.7 7.3 5.6 11.9 14.4 11.9 24.3 0 17-13.8 30.7-30.7 30.7H92.7c-15 0-28.4 6.6-37.5 17.1-5.6 7-14.2 11.4-23.9 11.4-14.6 0-26.8-10.1-29.9-23.8-.5 2.2-.8 4.6-.8 6.9 0 17 13.8 30.7 30.7 30.7h14.5c.1.2.2.3.3.3z" fill="#6cbe45" id="Layer_10"/><g id="Layer_1_1_"><circle class="st5" cx="111.7" cy="54.7" r="54.2"/><circle class="st5" cx="111.7" cy="54.7" r="54.2"/><circle class="st5" cx="114" cy="59.8" r="54.2"/><circle class="st5" cx="114" cy="59.8" r="54.2"/><circle class="st5" cx="111.6" cy="174.5" r="80.4"/><circle class="st5" cx="111.6" cy="174.5" r="80.4"/><circle class="st5" cx="92.7" cy="135.1" r="49.7"/><circle class="st5" cx="92.7" cy="135.1" r="49.7"/><circle class="st5" cx="31.2" cy="97.1" r="30.7"/><circle class="st5" cx="31.2" cy="97.1" r="30.7"/><circle class="st5" cx="31.2" cy="83.2" r="30.7"/><circle class="st5" cx="31.2" cy="83.2" r="30.7"/><circle class="st5" cx="111.7" cy="54.7" r="30.7"/><circle class="st5" cx="111.7" cy="54.7" r="30.7"/><circle class="st5" cx="92.7" cy="135.1" r="19"/><circle class="st5" cx="92.7" cy="135.1" r="19"/><circle class="st5" cx="111.6" cy="19.5" r="19"/><circle class="st5" cx="111.6" cy="19.5" r="19"/><circle class="st5" cx="154.1" cy="135.1" r="19"/><circle class="st5" cx="154.1" cy="135.1" r="19"/><circle class="st5" cx="154.1" cy="127.8" r="11.7"/><circle class="st5" cx="154.1" cy="127.8" r="11.7"/><circle class="st5" cx="111.7" cy="12.2" r="11.7"/><circle class="st5" cx="111.7" cy="12.2" r="11.7"/><circle class="st5" cx="123.4" cy="127.8" r="11.7"/><circle class="st5" cx="123.4" cy="127.8" r="11.7"/><circle class="st5" cx="92.7" cy="135.1" r="11.7"/><circle class="st5" cx="92.7" cy="135.1" r="11.7"/><circle class="st5" cx="61.9" cy="127.8" r="11.7"/><circle class="st5" cx="61.9" cy="127.8" r="11.7"/><circle class="st5" cx="45.7" cy="132.3" r="4.5"/><circle class="st5" cx="112.4" cy="24.6" r="19"/><circle class="st5" cx="112.4" cy="24.6" r="19"/></g></svg>