<svg xmlns="http://www.w3.org/2000/svg" viewBox="0 0 384.492 564.014"><path fill="#F2B62F" d="M85.666 282.007c.202-54.324 11.434-111.018 33.712-161.721l.585 1.312c25.33 49.84 37.463 105.495 37.463 160.092l.003.317c.012-3.321.071-6.644.165-9.964.033-1.119.092-2.236.133-3.354.081-2.203.163-4.406.281-6.607.072-1.336.169-2.67.254-4.004.126-1.984.252-3.968.407-5.951.112-1.423.247-2.844.374-4.265.169-1.895.34-3.79.537-5.682.151-1.46.322-2.919.49-4.378.212-1.853.431-3.706.67-5.558.191-1.478.396-2.953.603-4.429a394.547 394.547 0 011.519-9.93 438.572 438.572 0 011.766-9.879c.352-1.831.722-3.657 1.1-5.484.3-1.449.597-2.898.914-4.346.405-1.858.835-3.712 1.267-5.566.328-1.405.648-2.81.992-4.211.469-1.92.968-3.834 1.467-5.748.346-1.328.68-2.659 1.04-3.985.561-2.068 1.158-4.129 1.753-6.19.335-1.161.653-2.325.999-3.483.809-2.71 1.659-5.411 2.527-8.108.162-.501.308-1.005.472-1.506a402.252 402.252 0 013.248-9.534c.354-1 .735-1.993 1.099-2.991.789-2.168 1.578-4.338 2.406-6.495.473-1.234.973-2.461 1.458-3.692.754-1.911 1.507-3.824 2.293-5.726.543-1.316 1.11-2.625 1.667-3.936a407.843 407.843 0 012.334-5.408c.195-.442.376-.889.574-1.33h.004C172.747 76.675 145.08 35.812 109.268 0 67.799 17.528 29.732 42.769 0 75.687c74.444 74.444 100.216 178.985 77.317 274.269a292.19 292.19 0 008.079-69.104l.27 1.155z"/><path d="M192.259 120.286l-.008-.02-.007.001.012.026a.049.049 0 00.003-.007z"/><path fill="#B5B5B7" d="M384.492 75.687C354.76 42.769 316.692 17.528 275.225 0c-35.815 35.816-63.467 76.689-82.965 120.286.163.364.319.729.48 1.093.427.962.851 1.925 1.27 2.89.264.608.525 1.217.786 1.826a450.396 450.396 0 011.986 4.719c.399.965.793 1.932 1.184 2.9a314.79 314.79 0 011.897 4.786c.23.591.462 1.183.689 1.775.394 1.026.779 2.055 1.165 3.084.207.554.417 1.108.622 1.663.413 1.118.816 2.239 1.219 3.36.168.467.339.933.505 1.4.495 1.394.979 2.791 1.458 4.189.066.194.136.389.202.583a383.84 383.84 0 011.631 4.891l.115.362c.481 1.48.955 2.963 1.418 4.447.142.454.278.909.418 1.362.355 1.151.708 2.302 1.053 3.456.169.567.333 1.135.499 1.703.307 1.044.612 2.089.911 3.136.175.616.346 1.233.519 1.851.279 1 .558 2.001.829 3.004.176.646.347 1.292.519 1.939a384.02 384.02 0 013.167 12.75c.152.662.306 1.324.455 1.987.223.988.439 1.978.655 2.967.141.649.283 1.297.421 1.947.217 1.021.427 2.044.636 3.067.126.616.254 1.231.377 1.848.218 1.091.427 2.183.635 3.275.104.55.213 1.1.316 1.651.236 1.272.464 2.546.688 3.82.065.371.135.74.198 1.11.289 1.666.568 3.333.836 5.002.007.044.013.089.021.133.256 1.6.501 3.2.737 4.802.076.511.145 1.022.219 1.534.163 1.138.326 2.276.479 3.416.084.626.162 1.252.244 1.878.133 1.025.266 2.05.391 3.075.083.678.161 1.356.24 2.035.114.976.228 1.952.334 2.928.077.708.15 1.415.225 2.123a381.436 381.436 0 01.736 7.816 367.388 367.388 0 01.389 4.989 330.241 330.241 0 01.327 4.993c.044.746.089 1.491.129 2.237.049.925.093 1.85.136 2.774.034.741.07 1.482.101 2.223.039.932.069 1.865.102 2.797.024.733.053 1.467.074 2.201.027.965.046 1.929.066 2.894.015.699.034 1.399.045 2.098.02 1.169.027 2.339.036 3.508.004.474.013.948.015 1.422.002.403-.004.807-.004 1.211.001 1.253 0 2.506-.011 3.76-.006.685-.02 1.37-.029 2.055-.014.997-.026 1.994-.048 2.991-.015.712-.036 1.423-.056 2.134a411.01 411.01 0 01-.086 2.936c-.023.699-.053 1.398-.08 2.098a375.26 375.26 0 01-.228 5.011 463.212 463.212 0 01-.29 4.984c-.072 1.124-.15 2.247-.232 3.369-.039.533-.077 1.067-.118 1.601a397.142 397.142 0 01-.31 3.762c-.035.404-.068.81-.104 1.214a374.623 374.623 0 01-.428 4.479c-.016.161-.031.323-.048.484-4.275 41.835-15.183 83.108-32.749 122.146v.001c19.195 42.656 46.339 82.643 81.468 117.771 41.457-17.262 78.299-43.388 108.154-76.011l1.355-1.593c-112.59-113.959-112.167-297.283 1.271-410.721zm-53.346-44.391l-1.646 1.973 1.646-1.973z"/><path fill="#252839" d="M224.991 324.095c.017-.161.032-.323.048-.484.151-1.492.294-2.986.428-4.479.036-.404.07-.81.104-1.214.109-1.254.213-2.508.31-3.762.041-.533.08-1.067.118-1.601a375.858 375.858 0 00.522-8.353c.034-.671.069-1.343.101-2.014.047-.999.088-1.998.127-2.997.027-.699.057-1.398.08-2.098.033-.979.06-1.957.086-2.936.019-.711.041-1.422.056-2.134.021-.997.034-1.994.048-2.991.01-.685.023-1.37.029-2.055.012-1.254.012-2.507.011-3.76 0-.878-.004-1.756-.011-2.633-.009-1.169-.017-2.339-.036-3.508-.011-.699-.03-1.399-.045-2.098-.021-.965-.039-1.929-.066-2.894-.021-.733-.05-1.467-.074-2.201-.032-.932-.062-1.865-.102-2.797-.03-.741-.066-1.482-.101-2.223a425.57 425.57 0 00-.136-2.774c-.04-.746-.085-1.492-.129-2.237-.055-.92-.11-1.84-.172-2.76a411.393 411.393 0 00-1.28-15.038c-.074-.708-.147-1.416-.225-2.123-.106-.976-.22-1.952-.334-2.928-.079-.678-.157-1.357-.24-2.035-.125-1.025-.258-2.05-.391-3.075-.082-.626-.16-1.252-.244-1.878-.153-1.139-.316-2.277-.479-3.416-.074-.511-.143-1.023-.219-1.534a389.027 389.027 0 00-.737-4.802c-.008-.044-.014-.089-.021-.133a404.251 404.251 0 00-.836-5.002c-.063-.37-.133-.74-.198-1.11a456.412 456.412 0 00-.688-3.82c-.104-.551-.212-1.101-.316-1.651a363.766 363.766 0 00-.635-3.275c-.123-.617-.251-1.232-.377-1.848a396.913 396.913 0 00-.636-3.067c-.138-.649-.28-1.298-.421-1.947-.216-.99-.433-1.979-.655-2.967-.149-.663-.303-1.325-.455-1.987a364.958 364.958 0 00-1.168-4.918c-.237-.974-.479-1.946-.725-2.918a337.165 337.165 0 00-1.274-4.914c-.172-.646-.343-1.293-.519-1.939-.271-1.002-.55-2.003-.829-3.004-.173-.617-.344-1.234-.519-1.851a446.508 446.508 0 00-.911-3.136c-.166-.568-.33-1.136-.499-1.703a391.788 391.788 0 00-1.053-3.456c-.14-.454-.276-.909-.418-1.362a395.451 395.451 0 00-1.418-4.447l-.115-.362a394.656 394.656 0 00-1.631-4.891c-.066-.195-.136-.389-.202-.583a399.244 399.244 0 00-1.458-4.189c-.166-.468-.337-.934-.505-1.4a374.751 374.751 0 00-1.219-3.36c-.205-.555-.415-1.109-.622-1.663-.386-1.029-.771-2.058-1.165-3.084-.228-.592-.459-1.184-.689-1.775a314.79 314.79 0 00-1.897-4.786 359.874 359.874 0 00-1.951-4.742 399.49 399.49 0 00-3.759-8.679c-.195.436-.397.869-.59 1.305a407.843 407.843 0 00-2.334 5.408c-.558 1.311-1.125 2.62-1.667 3.936-.786 1.902-1.539 3.814-2.293 5.726-.486 1.231-.986 2.458-1.458 3.692-.828 2.158-1.617 4.327-2.406 6.495-.364.998-.745 1.991-1.099 2.991a396.27 396.27 0 00-3.248 9.534c-.164.5-.311 1.005-.472 1.506a397.44 397.44 0 00-2.527 8.108c-.346 1.158-.664 2.322-.999 3.483a387.73 387.73 0 00-1.753 6.19c-.36 1.326-.694 2.657-1.04 3.985a380.876 380.876 0 00-1.467 5.748c-.343 1.401-.664 2.807-.992 4.211a399.128 399.128 0 00-1.267 5.566c-.316 1.447-.614 2.897-.914 4.346a415.437 415.437 0 00-1.1 5.484 388.61 388.61 0 00-.817 4.411 408.302 408.302 0 00-1.661 9.908c-.283 1.829-.55 3.659-.807 5.49a416.541 416.541 0 00-.603 4.429c-.24 1.852-.458 3.705-.67 5.558-.168 1.459-.338 2.918-.49 4.378a385.608 385.608 0 00-.537 5.682c-.127 1.421-.262 2.842-.374 4.265a408.002 408.002 0 00-.407 5.951c-.085 1.334-.183 2.668-.254 4.004-.118 2.201-.2 4.404-.281 6.607-.041 1.118-.101 2.235-.133 3.354a403.764 403.764 0 00-.165 9.964l-.003-.317c0-54.597-12.133-110.252-37.463-160.092l-.585-1.312C97.1 170.99 85.868 227.684 85.666 282.007l-.27-1.155a292.249 292.249 0 01-8.079 69.104c-.053.221-.114.44-.167.662a287.857 287.857 0 01-1.873 7.282c-12.702 46.983-37.363 91.422-74.006 128.511l1.355 1.593c29.857 32.623 66.698 58.749 108.155 76.011a397.738 397.738 0 006.031-6.171c.229-.238.459-.475.687-.714a391.273 391.273 0 005.616-6.016c.274-.3.55-.599.823-.899a392.178 392.178 0 005.463-6.128l.652-.749a402.746 402.746 0 005.699-6.702c23.295-28.035 42.111-58.487 56.483-90.434 17.556-39.028 28.474-80.285 32.756-122.107z"/></svg>