<svg version="1.1" id="Layer_1" xmlns="http://www.w3.org/2000/svg" x="0" y="0" viewBox="0 0 728 772.2" xml:space="preserve"><style>.st1{opacity:.5}.st3{fill:#ffcd4e}.st4{fill:#272626}.st5{fill:#0aa5d2}.st7{fill:#fff}</style><path d="M355.2 689.9c-116.7 0-211.7-95-211.7-211.7 0-116.7 95-211.7 211.7-211.7 116.7 0 211.7 95 211.7 211.7 0 116.7-95 211.7-211.7 211.7z" fill="#4969b2"/><path d="M516.4 772.2c-116.7 0-211.7-95-211.7-211.7 0-116.7 95-211.7 211.7-211.7 116.7 0 211.7 95 211.7 211.7-.1 116.7-95 211.7-211.7 211.7z" fill="#e85ba1"/><g class="st1"><path class="st3" d="M355.2 689.9c-116.7 0-211.7-95-211.7-211.7 0-116.7 95-211.7 211.7-211.7 116.7 0 211.7 95 211.7 211.7 0 116.7-95 211.7-211.7 211.7z"/></g><g class="st1"><path class="st3" d="M211.7 423.4C95 423.4 0 328.4 0 211.7 0 95 95 0 211.7 0c116.7 0 211.7 95 211.7 211.7 0 116.7-95 211.7-211.7 211.7z"/></g><g class="st1"><path class="st4" d="M379.4 456.9c-47 0-85.3-38.3-85.3-85.3s38.3-85.3 85.3-85.3 85.3 38.3 85.3 85.3-38.3 85.3-85.3 85.3z"/></g><g class="st1"><path class="st4" d="M348.1 689.9c-47 0-85.3-38.3-85.3-85.3s38.3-85.3 85.3-85.3 85.3 38.3 85.3 85.3-38.3 85.3-85.3 85.3z"/></g><g class="st1"><path class="st5" d="M282.9 499.7c-23.8 0-43.1-19.4-43.1-43.1 0-23.8 19.4-43.1 43.1-43.1 23.8 0 43.1 19.4 43.1 43.1.1 23.7-19.3 43.1-43.1 43.1z"/></g><g class="st1"><path class="st5" d="M153.1 456.5c-23.8 0-43.1-19.4-43.1-43.1 0-23.8 19.4-43.1 43.1-43.1 23.8 0 43.1 19.4 43.1 43.1 0 23.8-19.4 43.1-43.1 43.1z"/></g><path d="M488.4 681.9c-70.3 0-127.4-57.2-127.4-127.4 0-70.3 57.2-127.4 127.4-127.4 70.3 0 127.4 57.2 127.4 127.4.1 70.2-57.1 127.4-127.4 127.4z" fill="#ef423e"/><g class="st1"><path class="st5" d="M371.6 689.3c-23.8 0-43.1-19.4-43.1-43.1 0-23.8 19.4-43.1 43.1-43.1 23.8 0 43.1 19.4 43.1 43.1 0 23.8-19.4 43.1-43.1 43.1z"/></g><g class="st1"><path class="st5" d="M348.1 732.5c-23.8 0-43.1-19.4-43.1-43.1 0-23.8 19.4-43.1 43.1-43.1 23.8 0 43.1 19.4 43.1 43.1 0 23.7-19.3 43.1-43.1 43.1z"/></g><g class="st1"><path class="st5" d="M364.8 564.5c-23.8 0-43.1-19.4-43.1-43.1 0-23.8 19.4-43.1 43.1-43.1 23.8 0 43.1 19.4 43.1 43.1.1 23.7-19.3 43.1-43.1 43.1z"/></g><path class="st7" d="M112.3 399c7.9 4.5 16.7 7.7 25.2 11 5.7 2.2 11.5 4.5 17.4 6.1 27.3 7.2 55.8 9.3 83.8 5.7 24.6-3.2 48.7-10.6 70.8-21.9 22-11.3 40.6-27.7 57.5-45.6 7.9-8.4 15.3-17.2 21.4-27 5.2-8.3 12.1-20.5 7.5-30.5-4.2-9.2-16.1-10.5-25-9.9-9.5.6-18.7 3.2-27.3 7.2-16.3 7.6-30.6 20.3-39.7 35.9-10.9 18.7-13.1 40.8-7.7 61.6 5 19.4 15.9 36.5 32 48.5 14.9 11.1 33.4 17.2 52 17.1 19.9-.1 39.1-7.5 54.3-20.2 6.6-5.5 12.4-11.8 16.6-19.4 3.6-6.5 6.1-13.7 7.3-21.1 1.7-10.6.6-25.5-11.4-29.6-7.1-2.4-15.1-.3-21.8 2.4-9.6 3.9-18.7 9.3-27.3 15-16.8 11.1-32 24.7-44.9 40.2a207.61 207.61 0 00-31.1 50.4c-8 18.2-13.5 37.4-16.2 57.1-2.7 19.5-2.8 39.4 0 59 2.8 20.1 8.6 39.8 17.2 58.2 7.7 16.5 17.6 32 29.4 45.9 7.8 9.2 16.1 18 25 26 .4.3.9-.2.5-.5-14.3-13-27.4-27.5-38.2-43.6-11.3-16.8-20.2-35.2-26.1-54.6-5.7-18.7-8.7-38.2-9-57.7-.3-19.4 2.1-38.8 7-57.5 4.9-18.6 12.3-36.5 21.9-53.2 9.7-16.8 21.7-32.2 35.7-45.6 14.3-13.8 30.7-25.5 48.4-34.5 11.3-5.8 30.8-13.4 38.3 1.9 2.8 5.6 3 12.2 2.3 18.3-.8 7.3-3.1 14.5-6.4 21.1-8.3 16.5-24.5 28.9-41.4 35.6-17.5 6.9-37 7.6-55 2.2-17.8-5.3-33.8-16.5-44.7-31.5-12.5-17.3-18.6-40.1-16-61.3 2.3-19.4 12.3-37 26.6-50.1 13.3-12.1 30.5-20.8 48.7-22.2 9.7-.8 23.6.7 26.3 12.1 1.4 5.8-.6 12-3 17.2-2.6 5.7-6 11-9.6 16.2-6.4 9.2-14 17.4-21.8 25.4-8.7 8.9-17.8 17.3-27.6 24.9-18.6 14.4-40.7 24.4-63.2 30.9-24.9 7.2-51 9.8-76.8 7.7-13.7-1.1-27.9-3.1-41.1-7.2-5.5-1.7-11-3.9-16.4-5.9-8.1-3.1-16.5-6.2-24.1-10.5-.3-.6-.7.1-.3.3z"/><path class="st7" d="M432 589.7c-21 5.7-42.5 9.7-64 12.7-23.2 3.2-46.5 5.4-69.9 6-11.8.3-23.5.2-35.3-.5-.5 0-.5.7 0 .8 21.8 1.4 43.8.6 65.6-1.1 23.3-1.9 46.4-4.9 69.4-9.2 11.6-2.2 23.1-4.7 34.4-7.8.5-.3.3-1.1-.2-.9z"/><path class="st7" d="M439.2 672.1c-13.8-5.1-26.4-13.3-37.2-23.3-11-10.3-20-22.6-26.8-36.1-7-13.9-11.6-29.1-13.3-44.5-1.8-16.1-.6-32.4 3.8-48 1.5-5.4 3.4-10.7 5.8-15.7 2.9-6.1 6-12.2 9.6-18 .8-1.3 1.7-2.7 2.6-3.9.3-.4-.4-.8-.6-.4-4.2 5.7-7.4 12.1-10.6 18.4-2.2 4.5-4.2 9-5.8 13.8-5.2 15.6-7.2 32.1-6 48.5 1.1 15.6 5.1 31 11.6 45.2 6.3 13.9 15 26.8 25.7 37.7 10.3 10.5 22.6 19.2 36.1 25.1 1.6.7 3.3 1.4 4.9 2 .5.1.7-.6.2-.8z"/><path class="st7" d="M111 401.3c8.1 4.6 17.1 7.9 25.8 11.2 5.7 2.2 11.5 4.5 17.4 6.1 27.5 7.2 56.3 9.4 84.5 5.8 25.1-3.2 49.6-10.7 72.2-22.3 22.2-11.4 41-28 58-46 8.1-8.6 15.6-17.5 21.9-27.5 5.8-9.3 12.7-22.1 7.5-33.1-4.7-10-17.5-11.8-27.3-11.2-9.9.6-19.6 3.3-28.6 7.5-16.7 7.8-31.3 20.9-40.6 36.9-11.2 19.3-13.5 42.1-8 63.6 5.2 20.1 16.5 37.6 33.2 50 15.3 11.4 34.3 17.5 53.4 17.4 20.6-.1 40.4-7.8 56.2-20.9 12.8-10.7 21.9-25 24.6-41.6 1.9-12.2.3-28.2-13.2-32.9-7.5-2.6-16.1-.5-23.2 2.4-9.8 4-19.1 9.4-27.9 15.2-17 11.2-32.4 24.9-45.4 40.6-12.8 15.4-23.5 32.6-31.5 50.9-8.1 18.4-13.7 37.8-16.5 57.7-2.8 20-2.8 40.3 0 60.4 2.9 20.4 8.8 40.2 17.5 58.9 7.8 16.7 17.8 32.4 29.8 46.5 7.8 9.2 16.1 18 25 26 2.9 2.6 7.1-1.6 4.2-4.2-14.1-12.8-27.2-27.2-37.8-43-11.2-16.6-20-34.8-25.8-54-5.7-18.5-8.7-37.7-8.9-57-.3-19.1 2.1-38.3 6.9-56.8 4.8-18.4 12.1-36.1 21.6-52.6a205.7 205.7 0 0135.3-45.1c14.2-13.7 30.3-25.2 47.8-34.1 7.2-3.7 15.4-7.5 23.7-6.8 4.9.4 8.7 3.1 11 7.7.9 1.8 1.8 5.2 2 7.3.4 3.2.3 6.4-.1 9.6-.7 6.7-3 13.6-6 19.8-8 15.9-23.5 27.9-39.8 34.4-17.1 6.7-36 7.5-53.6 2.2-17.1-5.1-32.6-15.8-43.1-30.3-12.3-17-18.2-39.1-15.7-60 2.2-18.7 12-35.7 25.9-48.2 12.8-11.6 29.4-20.1 46.8-21.4 8.4-.7 21.3.1 23.7 10.2 1.2 5-.7 10.6-2.8 15.2-2.6 5.7-6 11-9.6 16.2-6.2 9-13.7 17.1-21.3 24.9-8.6 8.8-17.7 17.2-27.4 24.7-18.4 14.2-40.1 24-62.3 30.5-24.7 7.1-50.5 9.7-76.1 7.7-13.5-1.1-27.5-3.1-40.4-7.1-5.5-1.7-11-3.9-16.4-5.9-7.9-3-16-6-23.4-10.2-3.5-2.4-6.6 2.7-3.2 4.7z"/><path class="st7" d="M430.6 583.6c-.9.4-1.9.8-2.8 1.3-.1 0-.9.4-.2.1-.2.1-.5.2-.7.3-.6.2-1.2.5-1.7.7-2.1.8-4.2 1.6-6.3 2.3-4.7 1.6-9.5 3-14.4 4.3-10.9 2.9-22.1 5-33.3 6.8-23.7 3.8-48 5.8-72.2 6.4-12 .3-24.1.2-36.1-.6-1.6-.1-3 1.5-3 3 0 1.7 1.4 2.9 3 3 22.8 1.5 45.8.7 68.6-1.1 23.9-1.9 47.9-5.1 71.1-10.8 10.6-2.6 21.2-5.8 31.1-10.5 1.5-.7 1.8-2.8 1.1-4.1-.9-1.5-2.7-1.8-4.2-1.1z"/><path class="st7" d="M439.9 669.6c-6.4-2.4-12.9-5.6-19-9.5-6.2-3.9-11.6-8.1-17-13.2-10.9-10.3-19.6-22.1-26.4-35.5-6.7-13.3-11.3-28.5-13-43.2-1.8-16-.6-31.9 3.7-47.3 1.1-4 2.7-7.9 4-11.8-.3.9.2-.4.3-.6.4-.9.8-1.8 1.2-2.6 2.9-6.1 6-12.2 9.6-18 .8-1.3 1.7-2.7 2.6-3.9 1-1.3.2-3.3-1.1-4.1-1.5-.9-3.1-.2-4.1 1.1-4.2 5.7-7.4 12.1-10.6 18.4-2.3 4.7-4.4 9.4-6.1 14.4-5.2 15.8-7.3 32.6-6.1 49.2 1.2 16.1 5.2 31.9 11.9 46.6 6.4 14.1 15.3 27.2 26.1 38.2 10.5 10.7 22.9 19.6 36.7 25.5 1.8.8 3.7 1.5 5.6 2.2 1.5.6 3.3-.6 3.7-2.1.6-1.8-.5-3.2-2-3.8zM296.4 391.4c-5.4-20.8-3.2-42.9 7.7-61.6 9.1-15.6 23.3-28.3 39.7-35.9 8.6-4 17.8-6.6 27.3-7.2 8.9-.5 20.8.7 25 9.9 4.6 10-2.3 22.2-7.5 30.5-6.2 9.8-13.5 18.6-21.4 27-16.8 17.9-35.5 34.4-57.5 45.6-22.1 11.3-46.2 18.8-70.8 21.9-28 3.6-56.5 1.5-83.8-5.7-5.9-1.6 15.6 4.9 29.3 6 25.8 2.1 51.9-.5 76.8-7.7 22.6-6.5 44.6-16.5 63.2-30.9 9.8-7.6 19-16 27.6-24.9 7.8-8 15.4-16.2 21.8-25.4 3.6-5.1 7-10.5 9.6-16.2 2.4-5.3 3.7-11.3 3-17.2-.9-7.4-6.6-11.9-16.3-11.1-18.1 1.4-35.3 9.1-48.7 21.2-14.4 13-24.3 30.7-26.6 50.1l-1 15 2.6 16.6z"/><path class="st7" d="M338.2 445.8c61.7 32.4 114.8-13.1 120.4-49.5 5.8-73-87.9 4-105.3 27.9-73.9 86.8-63 223.1 24.2 296.6-91.5-81.2-99-225.2-8.3-312.7 18.1-17 81-68.9 80.2-17.5-.3 18.4-21 43-49.5 57.1-17.7 8.8-47.9 4.1-61.7-1.9z"/><path class="st7" d="M432.7 590.3c-11.4 3.1-23.3 5.7-34.9 7.9-22.9 4.3-46.1 7.4-69.4 9.2-21.8 1.7-43.8 2.5-65.6 1.1-.5 0-.5-.8 0-.8 11.7.8 36.5-.2 48.3-.5 23.4-.6 49.6-4.3 66.9-8 21.3-4.5 36.7-9.3 51-21.9 0 0 5.5-5.7 7.8 2.2 2.3 8.1-4.1 10.8-4.1 10.8z"/></svg>