<?xml version="1.0" encoding="utf-8"?>
<svg version="1.1" id="in" xmlns="http://www.w3.org/2000/svg" xmlns:xlink="http://www.w3.org/1999/xlink" x="0px" y="0px"
	 viewBox="0 0 64 64" style="enable-background:new 0 0 64 64;" xml:space="preserve">
<path d="M52,0H12C5.4,0,0,5.4,0,12v40c0,6.6,5.4,12,12,12h40c6.6,0,12-5.4,12-12V12C64,5.4,58.6,0,52,0z M17.9,56.6H7.5V23.3h10.3
	V56.6z M12.7,18.8c-3.4,0-6-2.7-6-6.1c0-3.4,2.7-6.1,6-6.1c3.3,0,6,2.7,6,6.1C18.8,16,16.1,18.8,12.7,18.8z M56.7,56.6H46.4V40.4
	c0-3.8-0.1-8.9-5.3-8.9c-5.3,0-6.2,4.2-6.2,8.6v16.6H24.5V23.3h9.9v4.5h0.1c1.4-2.7,4.8-5.4,9.8-5.4c10.5,0,12.4,6.9,12.4,15.9V56.6
	z"/>
</svg>
