<?xml version="1.0" encoding="utf-8"?>
<!-- Generator: Adobe Illustrator 24.0.2, SVG Export Plug-In . SVG Version: 6.00 Build 0)  -->
<svg version="1.1" id="Layer_1" xmlns="http://www.w3.org/2000/svg" xmlns:xlink="http://www.w3.org/1999/xlink" x="0px" y="0px"
	 viewBox="0 0 728 772.2" style="enable-background:new 0 0 728 772.2;" xml:space="preserve">
<style type="text/css">
	.st0{fill:#4969B2;}
	.st1{opacity:0.5;}
	.st2{fill:#E85BA1;}
	.st3{fill:#FFCD4E;}
	.st4{fill:#272626;}
	.st5{fill:#0AA5D2;}
	.st6{fill:#EF423E;}
	.st7{fill:#FFFFFF;}
</style>
<g>
	<path class="st0" d="M355.2,689.9c-116.7,0-211.7-95-211.7-211.7c0-116.7,95-211.7,211.7-211.7c116.7,0,211.7,95,211.7,211.7
		C566.9,594.9,471.9,689.9,355.2,689.9z"/>
</g>
<g class="st1">
	<path class="st2" d="M516.4,772.2c-116.7,0-211.7-95-211.7-211.7c0-116.7,95-211.7,211.7-211.7c116.7,0,211.7,95,211.7,211.7
		C728,677.2,633.1,772.2,516.4,772.2z"/>
</g>
<g class="st1">
	<path class="st3" d="M355.2,689.9c-116.7,0-211.7-95-211.7-211.7c0-116.7,95-211.7,211.7-211.7c116.7,0,211.7,95,211.7,211.7
		C566.9,594.9,471.9,689.9,355.2,689.9z"/>
</g>
<g class="st1">
	<path class="st3" d="M211.7,423.4C95,423.4,0,328.4,0,211.7C0,95,95,0,211.7,0c116.7,0,211.7,95,211.7,211.7
		C423.4,328.4,328.4,423.4,211.7,423.4z"/>
</g>
<g class="st1">
	<path class="st4" d="M379.4,456.9c-47,0-85.3-38.3-85.3-85.3s38.3-85.3,85.3-85.3c47,0,85.3,38.3,85.3,85.3
		S426.4,456.9,379.4,456.9z"/>
</g>
<g class="st1">
	<path class="st4" d="M348.1,689.9c-47,0-85.3-38.3-85.3-85.3s38.3-85.3,85.3-85.3c47,0,85.3,38.3,85.3,85.3
		S395.1,689.9,348.1,689.9z"/>
</g>
<g class="st1">
	<path class="st5" d="M282.9,499.7c-23.8,0-43.1-19.4-43.1-43.1c0-23.8,19.4-43.1,43.1-43.1c23.8,0,43.1,19.4,43.1,43.1
		C326.1,480.3,306.7,499.7,282.9,499.7z"/>
</g>
<g class="st1">
	<path class="st5" d="M153.1,456.5c-23.8,0-43.1-19.4-43.1-43.1c0-23.8,19.4-43.1,43.1-43.1c23.8,0,43.1,19.4,43.1,43.1
		C196.2,437.2,176.8,456.5,153.1,456.5z"/>
</g>
<g class="st1">
	<path class="st6" d="M488.4,681.9c-70.3,0-127.4-57.2-127.4-127.4c0-70.3,57.2-127.4,127.4-127.4c70.3,0,127.4,57.2,127.4,127.4
		C615.9,624.7,558.7,681.9,488.4,681.9z"/>
</g>
<g class="st1">
	<path class="st5" d="M371.6,689.3c-23.8,0-43.1-19.4-43.1-43.1c0-23.8,19.4-43.1,43.1-43.1c23.8,0,43.1,19.4,43.1,43.1
		C414.7,670,395.3,689.3,371.6,689.3z"/>
</g>
<g class="st1">
	<path class="st5" d="M348.1,732.5c-23.8,0-43.1-19.4-43.1-43.1c0-23.8,19.4-43.1,43.1-43.1c23.8,0,43.1,19.4,43.1,43.1
		C391.2,713.1,371.9,732.5,348.1,732.5z"/>
</g>
<g class="st1">
	<path class="st5" d="M364.8,564.5c-23.8,0-43.1-19.4-43.1-43.1c0-23.8,19.4-43.1,43.1-43.1c23.8,0,43.1,19.4,43.1,43.1
		C408,545.1,388.6,564.5,364.8,564.5z"/>
</g>
<g>
	<g>
		<path class="st7" d="M112.3,399c7.9,4.5,16.7,7.7,25.2,11c5.7,2.2,11.5,4.5,17.4,6.1c27.3,7.2,55.8,9.3,83.8,5.7
			c24.6-3.2,48.7-10.6,70.8-21.9c22-11.3,40.6-27.7,57.5-45.6c7.9-8.4,15.3-17.2,21.4-27c5.2-8.3,12.1-20.5,7.5-30.5
			c-4.2-9.2-16.1-10.5-25-9.9c-9.5,0.6-18.7,3.2-27.3,7.2c-16.3,7.6-30.6,20.3-39.7,35.9c-10.9,18.7-13.1,40.8-7.7,61.6
			c5,19.4,15.9,36.5,32,48.5c14.9,11.1,33.4,17.2,52,17.1c19.9-0.1,39.1-7.5,54.3-20.2c6.6-5.5,12.4-11.8,16.6-19.4
			c3.6-6.5,6.1-13.7,7.3-21.1c1.7-10.6,0.6-25.5-11.4-29.6c-7.1-2.4-15.1-0.3-21.8,2.4c-9.6,3.9-18.7,9.3-27.3,15
			c-16.8,11.1-32,24.7-44.9,40.2c-12.7,15.2-23.2,32.2-31.1,50.4c-8,18.2-13.5,37.4-16.2,57.1c-2.7,19.5-2.8,39.4,0,59
			c2.8,20.1,8.6,39.8,17.2,58.2c7.7,16.5,17.6,32,29.4,45.9c7.8,9.2,16.1,18,25,26c0.4,0.3,0.9-0.2,0.5-0.5
			c-14.3-13-27.4-27.5-38.2-43.6c-11.3-16.8-20.2-35.2-26.1-54.6c-5.7-18.7-8.7-38.2-9-57.7c-0.3-19.4,2.1-38.8,7-57.5
			c4.9-18.6,12.3-36.5,21.9-53.2c9.7-16.8,21.7-32.2,35.7-45.6c14.3-13.8,30.7-25.5,48.4-34.5c11.3-5.8,30.8-13.4,38.3,1.9
			c2.8,5.6,3,12.2,2.3,18.3c-0.8,7.3-3.1,14.5-6.4,21.1c-8.3,16.5-24.5,28.9-41.4,35.6c-17.5,6.9-37,7.6-55,2.2
			c-17.8-5.3-33.8-16.5-44.7-31.5c-12.5-17.3-18.6-40.1-16-61.3c2.3-19.4,12.3-37,26.6-50.1c13.3-12.1,30.5-20.8,48.7-22.2
			c9.7-0.8,23.6,0.7,26.3,12.1c1.4,5.8-0.6,12-3,17.2c-2.6,5.7-6,11-9.6,16.2c-6.4,9.2-14,17.4-21.8,25.4
			c-8.7,8.9-17.8,17.3-27.6,24.9c-18.6,14.4-40.7,24.4-63.2,30.9c-24.9,7.2-51,9.8-76.8,7.7c-13.7-1.1-27.9-3.1-41.1-7.2
			c-5.5-1.7-11-3.9-16.4-5.9c-8.1-3.1-16.5-6.2-24.1-10.5C112.3,398.1,111.9,398.8,112.3,399L112.3,399z"/>
	</g>
</g>
<g>
	<g>
		<path class="st7" d="M432,589.7c-21,5.7-42.5,9.7-64,12.7c-23.2,3.2-46.5,5.4-69.9,6c-11.8,0.3-23.5,0.2-35.3-0.5
			c-0.5,0-0.5,0.7,0,0.8c21.8,1.4,43.8,0.6,65.6-1.1c23.3-1.9,46.4-4.9,69.4-9.2c11.6-2.2,23.1-4.7,34.4-7.8
			C432.7,590.3,432.5,589.5,432,589.7L432,589.7z"/>
	</g>
</g>
<g>
	<g>
		<path class="st7" d="M439.2,672.1c-13.8-5.1-26.4-13.3-37.2-23.3c-11-10.3-20-22.6-26.8-36.1c-7-13.9-11.6-29.1-13.3-44.5
			c-1.8-16.1-0.6-32.4,3.8-48c1.5-5.4,3.4-10.7,5.8-15.7c2.9-6.1,6-12.2,9.6-18c0.8-1.3,1.7-2.7,2.6-3.9c0.3-0.4-0.4-0.8-0.6-0.4
			c-4.2,5.7-7.4,12.1-10.6,18.4c-2.2,4.5-4.2,9-5.8,13.8c-5.2,15.6-7.2,32.1-6,48.5c1.1,15.6,5.1,31,11.6,45.2
			c6.3,13.9,15,26.8,25.7,37.7c10.3,10.5,22.6,19.2,36.1,25.1c1.6,0.7,3.3,1.4,4.9,2C439.5,673,439.7,672.3,439.2,672.1L439.2,672.1
			z"/>
	</g>
</g>
<g>
	<g>
		<path class="st7" d="M111,401.3c8.1,4.6,17.1,7.9,25.8,11.2c5.7,2.2,11.5,4.5,17.4,6.1c27.5,7.2,56.3,9.4,84.5,5.8
			c25.1-3.2,49.6-10.7,72.2-22.3c22.2-11.4,41-28,58-46c8.1-8.6,15.6-17.5,21.9-27.5c5.8-9.3,12.7-22.1,7.5-33.1
			c-4.7-10-17.5-11.8-27.3-11.2c-9.9,0.6-19.6,3.3-28.6,7.5c-16.7,7.8-31.3,20.9-40.6,36.9c-11.2,19.3-13.5,42.1-8,63.6
			c5.2,20.1,16.5,37.6,33.2,50c15.3,11.4,34.3,17.5,53.4,17.4c20.6-0.1,40.4-7.8,56.2-20.9c12.8-10.7,21.9-25,24.6-41.6
			c1.9-12.2,0.3-28.2-13.2-32.9c-7.5-2.6-16.1-0.5-23.2,2.4c-9.8,4-19.1,9.4-27.9,15.2c-17,11.2-32.4,24.9-45.4,40.6
			c-12.8,15.4-23.5,32.6-31.5,50.9c-8.1,18.4-13.7,37.8-16.5,57.7c-2.8,20-2.8,40.3,0,60.4c2.9,20.4,8.8,40.2,17.5,58.9
			c7.8,16.7,17.8,32.4,29.8,46.5c7.8,9.2,16.1,18,25,26c2.9,2.6,7.1-1.6,4.2-4.2c-14.1-12.8-27.2-27.2-37.8-43
			c-11.2-16.6-20-34.8-25.8-54c-5.7-18.5-8.7-37.7-8.9-57c-0.3-19.1,2.1-38.3,6.9-56.8c4.8-18.4,12.1-36.1,21.6-52.6
			c9.6-16.6,21.5-31.8,35.3-45.1c14.2-13.7,30.3-25.2,47.8-34.1c7.2-3.7,15.4-7.5,23.7-6.8c4.9,0.4,8.7,3.1,11,7.7
			c0.9,1.8,1.8,5.2,2,7.3c0.4,3.2,0.3,6.4-0.1,9.6c-0.7,6.7-3,13.6-6,19.8c-8,15.9-23.5,27.9-39.8,34.4c-17.1,6.7-36,7.5-53.6,2.2
			c-17.1-5.1-32.6-15.8-43.1-30.3c-12.3-17-18.2-39.1-15.7-60c2.2-18.7,12-35.7,25.9-48.2c12.8-11.6,29.4-20.1,46.8-21.4
			c8.4-0.7,21.3,0.1,23.7,10.2c1.2,5-0.7,10.6-2.8,15.2c-2.6,5.7-6,11-9.6,16.2c-6.2,9-13.7,17.1-21.3,24.9
			c-8.6,8.8-17.7,17.2-27.4,24.7c-18.4,14.2-40.1,24-62.3,30.5c-24.7,7.1-50.5,9.7-76.1,7.7c-13.5-1.1-27.5-3.1-40.4-7.1
			c-5.5-1.7-11-3.9-16.4-5.9c-7.9-3-16-6-23.4-10.2C110.7,394.2,107.6,399.3,111,401.3L111,401.3z"/>
	</g>
</g>
<g>
	<g>
		<path class="st7" d="M430.6,583.6c-0.9,0.4-1.9,0.8-2.8,1.3c-0.1,0-0.9,0.4-0.2,0.1c-0.2,0.1-0.5,0.2-0.7,0.3
			c-0.6,0.2-1.2,0.5-1.7,0.7c-2.1,0.8-4.2,1.6-6.3,2.3c-4.7,1.6-9.5,3-14.4,4.3c-10.9,2.9-22.1,5-33.3,6.8
			c-23.7,3.8-48,5.8-72.2,6.4c-12,0.3-24.1,0.2-36.1-0.6c-1.6-0.1-3,1.5-3,3c0,1.7,1.4,2.9,3,3c22.8,1.5,45.8,0.7,68.6-1.1
			c23.9-1.9,47.9-5.1,71.1-10.8c10.6-2.6,21.2-5.8,31.1-10.5c1.5-0.7,1.8-2.8,1.1-4.1C433.9,583.2,432.1,582.9,430.6,583.6
			L430.6,583.6z"/>
	</g>
</g>
<g>
	<g>
		<path class="st7" d="M439.9,669.6c-6.4-2.4-12.9-5.6-19-9.5c-6.2-3.9-11.6-8.1-17-13.2c-10.9-10.3-19.6-22.1-26.4-35.5
			c-6.7-13.3-11.3-28.5-13-43.2c-1.8-16-0.6-31.9,3.7-47.3c1.1-4,2.7-7.9,4-11.8c-0.3,0.9,0.2-0.4,0.3-0.6c0.4-0.9,0.8-1.8,1.2-2.6
			c2.9-6.1,6-12.2,9.6-18c0.8-1.3,1.7-2.7,2.6-3.9c1-1.3,0.2-3.3-1.1-4.1c-1.5-0.9-3.1-0.2-4.1,1.1c-4.2,5.7-7.4,12.1-10.6,18.4
			c-2.3,4.7-4.4,9.4-6.1,14.4c-5.2,15.8-7.3,32.6-6.1,49.2c1.2,16.1,5.2,31.9,11.9,46.6c6.4,14.1,15.3,27.2,26.1,38.2
			c10.5,10.7,22.9,19.6,36.7,25.5c1.8,0.8,3.7,1.5,5.6,2.2c1.5,0.6,3.3-0.6,3.7-2.1C442.5,671.6,441.4,670.2,439.9,669.6
			L439.9,669.6z"/>
	</g>
</g>
<path class="st7" d="M296.4,391.4c-5.4-20.8-3.2-42.9,7.7-61.6c9.1-15.6,23.3-28.3,39.7-35.9c8.6-4,17.8-6.6,27.3-7.2
	c8.9-0.5,20.8,0.7,25,9.9c4.6,10-2.3,22.2-7.5,30.5c-6.2,9.8-13.5,18.6-21.4,27c-16.8,17.9-35.5,34.4-57.5,45.6
	c-22.1,11.3-46.2,18.8-70.8,21.9c-28,3.6-56.5,1.5-83.8-5.7c-5.9-1.6,15.6,4.9,29.3,6c25.8,2.1,51.9-0.5,76.8-7.7
	c22.6-6.5,44.6-16.5,63.2-30.9c9.8-7.6,19-16,27.6-24.9c7.8-8,15.4-16.2,21.8-25.4c3.6-5.1,7-10.5,9.6-16.2c2.4-5.3,3.7-11.3,3-17.2
	c-0.9-7.4-6.6-11.9-16.3-11.1c-18.1,1.4-35.3,9.1-48.7,21.2c-14.4,13-24.3,30.7-26.6,50.1l-1,15L296.4,391.4z"/>
<path class="st7" d="M338.2,445.8c61.7,32.4,114.8-13.1,120.4-49.5c5.8-73-87.9,4-105.3,27.9c-73.9,86.8-63,223.1,24.2,296.6
	c-91.5-81.2-99-225.2-8.3-312.7c18.1-17,81-68.9,80.2-17.5c-0.3,18.4-21,43-49.5,57.1C382.2,456.5,352,451.8,338.2,445.8z"/>
<path class="st7" d="M432.7,590.3c-11.4,3.1-23.3,5.7-34.9,7.9c-22.9,4.3-46.1,7.4-69.4,9.2c-21.8,1.7-43.8,2.5-65.6,1.1
	c-0.5,0-0.5-0.8,0-0.8c11.7,0.8,36.5-0.2,48.3-0.5c23.4-0.6,49.6-4.3,66.9-8c21.3-4.5,36.7-9.3,51-21.9c0,0,5.5-5.7,7.8,2.2
	C439.1,587.6,432.7,590.3,432.7,590.3z"/>
</svg>
