<svg version="1.0" xmlns="http://www.w3.org/2000/svg" width="933.333" height="933.333" viewBox="0 0 700 700"><path d="M209.9 148.7c-94.8 94.9-141.1 142-144.3 146.6-7.9 11.5-12.5 22.8-15.6 38.1-1.3 6.5-1.7 23.9-.6 30.1 3.2 19.2 11.7 37.5 23.3 50.5l4 4.4 136.7-136.6L350 145.2l34.1 34 34.1 34.1-34.1 34.1-34.1 34.2 34.2 34.2 34.2 34.2 34.2-34.1 34.1-34.1 34.1 34.1 34.1 34.1-136.6 136.6-136.6 136.6 34.1 34.1 34.2 34.2L488.6 553c76.2-76.2 140.7-141.4 143.5-145 20.9-27.6 25.1-65.5 10.7-98-6.8-15.4-3.7-12.1-151.7-160.3C413.8 72.3 350.3 9 350 9c-.3 0-63.3 62.9-140.1 139.7z"/><path d="M273.7 371.2c-3.3.4-9.3 2.4-13.5 4.4-7.4 3.5-9.4 5.4-47.3 43.3-42.4 42.5-43.4 43.7-46.5 57-1.4 5.9-1.1 18.6.5 23.9 7.6 24.7 32.2 39.3 57.1 33.7 13.4-3.1 14.4-3.9 57.2-46.5 38.2-38 39.8-39.8 43.1-47 1.9-4.1 3.8-9.5 4.3-12 1.2-7.1.6-16.9-1.5-23.7-2-6.5-8.4-16.9-12.9-20.9-11.1-9.8-25.6-14.2-40.5-12.2z"/></svg>