<?xml version="1.0" encoding="utf-8"?>
<!-- Generator: Adobe Illustrator 24.0.2, SVG Export Plug-In . SVG Version: 6.00 Build 0)  -->
<svg version="1.1" id="Icon" xmlns="http://www.w3.org/2000/svg" xmlns:xlink="http://www.w3.org/1999/xlink" x="0px" y="0px"
	 viewBox="0 0 105.7 125" style="enable-background:new 0 0 105.7 125;" xml:space="preserve">
<g>
	<path d="M35.7,62.8l36.2-37.1c5.8-6,5.7-15.6-0.3-21.4S56-1.4,50.2,4.6l-46,47.2C1.1,55-0.3,59.2,0,63.3c-0.1,4.1,1.4,8.3,4.6,11.4
		l47.2,46c6,5.8,15.6,5.7,21.4-0.3c5.8-6,5.7-15.6-0.3-21.4L35.7,62.8z"/>
	<path d="M85.4,42.2c-11.2,0-20.3,9.1-20.3,20.3c0,11.2,9.1,20.3,20.3,20.3s20.3-9.1,20.3-20.3C105.7,51.3,96.6,42.2,85.4,42.2z"/>
</g>
</svg>
