<?xml version="1.0" encoding="utf-8"?>
<!-- Generator: Adobe Illustrator 24.0.2, SVG Export Plug-In . SVG Version: 6.00 Build 0)  -->
<svg version="1.1" id="Layer_1" xmlns="http://www.w3.org/2000/svg" xmlns:xlink="http://www.w3.org/1999/xlink" x="0px" y="0px"
	 viewBox="0 0 455 455" style="enable-background:new 0 0 455 455;" xml:space="preserve">
<style type="text/css">
	.st0{fill:#3F3F3F;}
	.st1{fill:#FFE000;}
</style>
<path class="st0" d="M405.1,183.1l-44.4-44.4l-44.4-44.4l-44.4-44.4L227.5,5.5l-44.4,44.4l-44.4,44.4l-44.4,44.4l-44.4,44.4
	c-24.5,24.5-24.5,64.3,0,88.8l44.4-44.4l44.4-44.4l44.4-44.4l44.4-44.4l44.4,44.4l-44.4,44.4l44.4,44.4l44.4-44.4l44.4,44.4
	l-44.4,44.4l-44.4,44.4l-44.4,44.4l-44.4,44.4l44.4,44.4l44.4-44.4l44.4-44.4l44.4-44.4l44.4-44.4
	C429.6,247.4,429.6,207.6,405.1,183.1z"/>
<path class="st1" d="M205,294.4l-44.1,44.1c-12.2,12.2-32.2,12.2-44.4,0l0,0c-12.2-12.2-12.2-32.2,0-44.4l44.1-44.1
	c12.2-12.2,32.2-12.2,44.4,0l0,0C217.2,262.2,217.2,282.2,205,294.4z"/>
</svg>
