<svg version="1.1" id="Layer_1" xmlns="http://www.w3.org/2000/svg" x="0" y="0" viewBox="0 0 455 455" xml:space="preserve"><style>@media (prefers-color-scheme:dark){path.st0{fill:#efefef}}</style><path class="st0" d="M405.1 183.1l-44.4-44.4-44.4-44.4-44.4-44.4-44.4-44.4-44.4 44.4-44.4 44.4-44.4 44.4-44.4 44.4c-24.5 24.5-24.5 64.3 0 88.8l44.4-44.4 44.4-44.4 44.4-44.4 44.4-44.4 44.4 44.4-44.4 44.4 44.4 44.4 44.4-44.4 44.4 44.4-44.4 44.4-44.4 44.4-44.4 44.4-44.4 44.4 44.4 44.4 44.4-44.4 44.4-44.4 44.4-44.4 44.4-44.4c24.5-24.5 24.5-64.3 0-88.8z" fill="#3f3f3f"/><path class="xst1" d="M205 294.4l-44.1 44.1c-12.2 12.2-32.2 12.2-44.4 0-12.2-12.2-12.2-32.2 0-44.4l44.1-44.1c12.2-12.2 32.2-12.2 44.4 0 12.2 12.2 12.2 32.2 0 44.4z" fill="#d817c8"/><path class="st2" d="M205 294.4l-44.1 44.1c-12.2 12.2-32.2 12.2-44.4 0-12.2-12.2-12.2-32.2 0-44.4l44.1-44.1c12.2-12.2 32.2-12.2 44.4 0 12.2 12.2 12.2 32.2 0 44.4z" fill="#d817c8"/></svg>