<svg xmlns="http://www.w3.org/2000/svg" viewBox="0 0 455 455"><path d="M405.1 183.1l-44.4-44.4-44.4-44.4-44.4-44.4-44.4-44.4-44.4 44.4-44.4 44.4-44.4 44.4-44.4 44.4c-24.5 24.5-24.5 64.3 0 88.8l44.4-44.4 44.4-44.4 44.4-44.4 44.4-44.4 44.4 44.4-44.4 44.4 44.4 44.4 44.4-44.4 44.4 44.4-44.4 44.4-44.4 44.4-44.4 44.4-44.4 44.4 44.4 44.4 44.4-44.4 44.4-44.4 44.4-44.4 44.4-44.4c24.5-24.5 24.5-64.3 0-88.8z" fill="#3f3f3f"/><path d="M205 294.4l-44.1 44.1c-12.2 12.2-32.2 12.2-44.4 0-12.2-12.2-12.2-32.2 0-44.4l44.1-44.1c12.2-12.2 32.2-12.2 44.4 0 12.2 12.2 12.2 32.2 0 44.4z" fill="#ffe000"/></svg>