<?xml version="1.0" standalone="no"?>
<!DOCTYPE svg PUBLIC "-//W3C//DTD SVG 20010904//EN"
 "http://www.w3.org/TR/2001/REC-SVG-20010904/DTD/svg10.dtd">
<svg version="1.0" xmlns="http://www.w3.org/2000/svg"
 width="700.000000pt" height="700.000000pt" viewBox="0 0 700.000000 700.000000"
 preserveAspectRatio="xMidYMid meet">
<metadata>
Created by potrace 1.14, written by Peter Selinger 2001-2017
</metadata>
<g transform="translate(0.000000,700.000000) scale(0.100000,-0.100000)"
fill="#000000" stroke="none">
<path d="M2099 5513 c-948 -949 -1411 -1420 -1443 -1466 -79 -115 -125 -228
-156 -381 -13 -65 -17 -239 -6 -301 32 -192 117 -375 233 -505 l40 -44 1367
1366 1366 1366 341 -340 341 -341 -341 -341 -341 -342 342 -342 342 -342 342
341 341 341 341 -341 341 -341 -1366 -1366 -1366 -1366 341 -341 342 -342
1386 1385 c762 762 1407 1414 1435 1450 209 276 251 655 107 980 -68 154 -37
121 -1517 1603 -773 774 -1408 1407 -1411 1407 -3 0 -633 -629 -1401 -1397z"/>
<path d="M2737 3288 c-33 -4 -93 -24 -135 -44 -74 -35 -94 -54 -473 -433 -424
-425 -434 -437 -465 -570 -14 -59 -11 -186 5 -239 76 -247 322 -393 571 -337
134 31 144 39 572 465 382 380 398 398 431 470 19 41 38 95 43 120 12 71 6
169 -15 237 -20 65 -84 169 -129 209 -111 98 -256 142 -405 122z"/>
</g>
</svg>
